<svg width="101" height="100" viewBox="0 0 101 100" fill="none" xmlns="http://www.w3.org/2000/svg">
<g clip-path="url(#clip0_32_9398)">
<path d="M67.1388 16.7042C67.1388 7.51433 59.6889 0.0644531 50.4991 0.0644531C41.3092 0.0644531 33.8594 7.51433 33.8594 16.7042V49.9835C33.8594 59.1733 41.3092 66.6232 50.4991 66.6232C59.6889 66.6232 67.1388 59.1733 67.1388 49.9835V16.7042Z" fill="#F2F2F2"/>
<path d="M67.1388 49.9834C67.1388 40.7936 59.6889 33.3438 50.4991 33.3438C41.3092 33.3438 33.8594 40.7936 33.8594 49.9834C33.8594 59.1733 41.3092 66.6231 50.4991 66.6231C59.6889 66.6231 67.1388 59.1733 67.1388 49.9834Z" fill="#F2F2F2"/>
<path d="M50.4996 41.6641H50.4995C45.9046 41.6641 42.1797 45.389 42.1797 49.9839V49.984C42.1797 54.5789 45.9046 58.3038 50.4995 58.3038H50.4996C55.0945 58.3038 58.8195 54.5789 58.8195 49.984V49.9839C58.8195 45.389 55.0945 41.6641 50.4996 41.6641Z" fill="#1A1A1A"/>
<path d="M50.4993 3.39258H50.4993C43.1474 3.39258 37.1875 9.35245 37.1875 16.7043V16.7044C37.1875 24.0562 43.1474 30.0161 50.4993 30.0161H50.4993C57.8512 30.0161 63.811 24.0562 63.811 16.7044V16.7043C63.811 9.35245 57.8512 3.39258 50.4993 3.39258Z" fill="#1A1A1A"/>
<path d="M55.4916 49.9804C55.4916 47.2235 53.2567 44.9885 50.4997 44.9885C47.7428 44.9885 45.5078 47.2235 45.5078 49.9804C45.5078 52.7374 47.7428 54.9723 50.4997 54.9723C53.2567 54.9723 55.4916 52.7374 55.4916 49.9804Z" fill="#F2F2F2"/>
<path d="M83.7782 66.6192C92.9681 66.6192 100.418 59.1694 100.418 49.9795C100.418 40.7897 92.9681 33.3398 83.7782 33.3398H50.499C41.3091 33.3398 33.8592 40.7897 33.8592 49.9795C33.8592 59.1694 41.3091 66.6192 50.499 66.6192H83.7782Z" fill="#F2F2F2"/>
<path d="M50.5009 66.6192C59.6908 66.6192 67.1406 59.1694 67.1406 49.9795C67.1406 40.7897 59.6908 33.3398 50.5009 33.3398C41.3111 33.3398 33.8612 40.7897 33.8612 49.9795C33.8612 59.1694 41.3111 66.6192 50.5009 66.6192Z" fill="#F2F2F2"/>
<path d="M58.8203 49.9801V49.98C58.8203 45.3851 55.0954 41.6602 50.5005 41.6602H50.5004C45.9055 41.6602 42.1805 45.3851 42.1805 49.98V49.9801C42.1805 54.575 45.9055 58.2999 50.5004 58.2999H50.5005C55.0954 58.2999 58.8203 54.575 58.8203 49.9801Z" fill="#1A1A1A"/>
<path d="M50.5022 54.9721C53.2592 54.9721 55.4941 52.7371 55.4941 49.9802C55.4941 47.2232 53.2592 44.9883 50.5022 44.9883C47.7453 44.9883 45.5103 47.2232 45.5103 49.9802C45.5103 52.7371 47.7453 54.9721 50.5022 54.9721Z" fill="#F2F2F2"/>
<path d="M17.2198 66.6192C8.02996 66.6192 0.580079 59.1694 0.580079 49.9795C0.580078 40.7897 8.02995 33.3398 17.2198 33.3398L50.4991 33.3398C59.689 33.3398 67.1388 40.7897 67.1388 49.9795C67.1388 59.1694 59.689 66.6192 50.4991 66.6192L17.2198 66.6192Z" fill="#F2F2F2"/>
<path d="M50.4991 66.6192C41.3092 66.6192 33.8594 59.1694 33.8594 49.9795C33.8594 40.7897 41.3092 33.3398 50.4991 33.3398C59.6889 33.3398 67.1388 40.7897 67.1388 49.9795C67.1388 59.1694 59.6889 66.6192 50.4991 66.6192Z" fill="#F2F2F2"/>
<path d="M42.1797 49.9801L42.1797 49.98C42.1797 45.3851 45.9046 41.6602 50.4995 41.6602L50.4996 41.6602C55.0945 41.6602 58.8195 45.3851 58.8195 49.98L58.8195 49.9801C58.8195 54.575 55.0945 58.2999 50.4996 58.2999L50.4995 58.2999C45.9046 58.2999 42.1797 54.575 42.1797 49.9801Z" fill="#1A1A1A"/>
<path d="M3.9082 49.9798L3.9082 49.9797C3.9082 42.6278 9.86808 36.668 17.22 36.668L17.22 36.668C24.5719 36.668 30.5317 42.6278 30.5317 49.9797L30.5317 49.9798C30.5317 57.3316 24.5719 63.2915 17.22 63.2915L17.22 63.2915C9.86808 63.2915 3.9082 57.3316 3.9082 49.9798Z" fill="#1A1A1A"/>
<path d="M70.4668 49.9798L70.4668 49.9797C70.4668 42.6278 76.4267 36.668 83.7786 36.668L83.7786 36.668C91.1305 36.668 97.0903 42.6278 97.0903 49.9797L97.0903 49.9798C97.0903 57.3316 91.1305 63.2915 83.7786 63.2915L83.7786 63.2915C76.4267 63.2915 70.4668 57.3316 70.4668 49.9798Z" fill="#1A1A1A"/>
<path d="M50.4978 54.9721C47.7408 54.9721 45.5059 52.7371 45.5059 49.9802C45.5059 47.2232 47.7408 44.9883 50.4978 44.9883C53.2547 44.9883 55.4897 47.2232 55.4897 49.9802C55.4897 52.7371 53.2547 54.9721 50.4978 54.9721Z" fill="#F2F2F2"/>
<path d="M33.8612 83.2626C33.8612 92.4525 41.3111 99.9023 50.5009 99.9023C59.6908 99.9023 67.1406 92.4525 67.1406 83.2626V49.9833C67.1406 40.7934 59.6908 33.3436 50.5009 33.3436C41.3111 33.3436 33.8612 40.7934 33.8612 49.9833L33.8612 83.2626Z" fill="#F2F2F2"/>
<path d="M33.8612 49.9834C33.8612 59.1732 41.3111 66.623 50.5009 66.623C59.6908 66.623 67.1406 59.1732 67.1406 49.9834C67.1406 40.7935 59.6908 33.3437 50.5009 33.3437C41.3111 33.3437 33.8612 40.7935 33.8612 49.9834Z" fill="#F2F2F2"/>
<path d="M50.5004 58.3027H50.5005C55.0954 58.3027 58.8203 54.5778 58.8203 49.9829V49.9828C58.8203 45.3879 55.0954 41.663 50.5005 41.663H50.5004C45.9055 41.663 42.1805 45.3879 42.1805 49.9828V49.9829C42.1805 54.5778 45.9055 58.3027 50.5004 58.3027Z" fill="#1A1A1A"/>
<path d="M50.5007 96.5742H50.5007C57.8526 96.5742 63.8125 90.6143 63.8125 83.2625V83.2624C63.8125 75.9106 57.8526 69.9507 50.5007 69.9507H50.5007C43.1488 69.9507 37.189 75.9106 37.189 83.2624V83.2625C37.189 90.6143 43.1488 96.5742 50.5007 96.5742Z" fill="#1A1A1A"/>
<path d="M48.8361 74.7734H52.1641V52.1435H48.8361V74.7734Z" fill="#1A1A1A"/>
<path d="M45.5084 49.9866C45.5084 52.7436 47.7433 54.9785 50.5003 54.9785C53.2572 54.9785 55.4922 52.7436 55.4922 49.9866C55.4922 47.2297 53.2572 44.9947 50.5003 44.9947C47.7433 44.9947 45.5084 47.2297 45.5084 49.9866Z" fill="#F2F2F2"/>
<path d="M52.1639 25.1953H48.8359V43.4975H52.1639V25.1953Z" fill="#1A1A1A"/>
<path d="M75.291 51.6443V48.3164H56.5828V51.6443H75.291Z" fill="#1A1A1A"/>
<path d="M25.709 51.6443L25.709 48.3164L43.9485 48.3164L43.9485 51.6443L25.709 51.6443Z" fill="#1A1A1A"/>
</g>
<defs>
<clipPath id="clip0_32_9398">
<rect width="100" height="100" fill="white" transform="translate(0.5)"/>
</clipPath>
</defs>
</svg>
