<svg width="115" height="14" viewBox="0 0 115 14" fill="none" xmlns="http://www.w3.org/2000/svg">
<rect x="14.582" width="1.32558" height="14.5814" transform="rotate(90 14.582 0)" fill="#F2F2F2"/>
<rect x="14.582" y="6.62769" width="1.32558" height="14.5814" transform="rotate(90 14.582 6.62769)" fill="#F2F2F2"/>
<rect width="1.32558" height="13.9185" fill="#F2F2F2"/>
<rect x="13.2561" width="1.32558" height="13.9185" fill="#F2F2F2"/>
<rect x="34.4658" width="1.32558" height="14.5814" transform="rotate(90 34.4658 0)" fill="#F2F2F2"/>
<rect x="26.5132" width="1.32558" height="13.9185" fill="#F2F2F2"/>
<rect x="47.7219" width="1.32558" height="7.95349" transform="rotate(90 47.7219 0)" fill="#F2F2F2"/>
<rect x="54.3501" y="6.29663" width="1.32558" height="14.5814" transform="rotate(90 54.3501 6.29663)" fill="#F2F2F2"/>
<rect x="39.7681" width="1.32558" height="13.9185" fill="#F2F2F2"/>
<rect x="53.0242" y="6.62769" width="1.32558" height="7.29071" fill="#F2F2F2"/>
<rect x="46.396" width="1.32558" height="7.29063" fill="#F2F2F2"/>
<rect x="74.2334" width="1.32558" height="14.5814" transform="rotate(90 74.2334 0)" fill="#F2F2F2"/>
<rect x="74.2334" y="12.593" width="1.32558" height="14.5814" transform="rotate(90 74.2334 12.593)" fill="#F2F2F2"/>
<rect x="66.2808" width="1.32558" height="13.9185" fill="#F2F2F2"/>
<rect x="94.1179" y="12.593" width="1.32558" height="14.5814" transform="rotate(90 94.1179 12.593)" fill="#F2F2F2"/>
<rect x="79.5359" width="1.32558" height="13.9185" fill="#F2F2F2"/>
<rect x="92.792" width="1.32558" height="13.9185" fill="#F2F2F2"/>
<rect x="114.002" width="1.32558" height="14.5814" transform="rotate(90 114.002 0)" fill="#F2F2F2"/>
<rect x="99.4204" width="1.32558" height="13.9185" fill="#F2F2F2"/>
<rect x="112.677" width="1.32558" height="13.9185" fill="#F2F2F2"/>
<rect x="106.049" width="1.32558" height="7.29063" fill="#F2F2F2"/>
</svg>
