<svg width="1400" height="171" viewBox="0 0 1400 171" fill="none" xmlns="http://www.w3.org/2000/svg">
<g clip-path="url(#clip0_32_10163)">
<path d="M179.205 16.4187V0.164062L0.25737 0.164063V16.4187L179.205 16.4187Z" fill="#F2F2F2"/>
<path d="M179.205 97.6921V81.4375L0.25737 81.4375V97.6921L179.205 97.6921Z" fill="#F2F2F2"/>
<path d="M16.5238 0.164062H0.255859V170.837H16.5238V0.164062Z" fill="#F2F2F2"/>
<path d="M179.204 0.164062H162.936V170.837H179.204V0.164062Z" fill="#F2F2F2"/>
<path d="M423.223 16.4187V0.164062L244.275 0.164063V16.4187L423.223 16.4187Z" fill="#F2F2F2"/>
<path d="M341.883 0.164062H325.615V170.837H341.883V0.164062Z" fill="#F2F2F2"/>
<path d="M585.904 16.4187V0.164062L488.297 0.164063V16.4187L585.904 16.4187Z" fill="#F2F2F2"/>
<path d="M667.244 93.6277V77.373L488.296 77.373V93.6277L667.244 93.6277Z" fill="#F2F2F2"/>
<path d="M504.565 0.164062H488.297V170.837H504.565V0.164062Z" fill="#F2F2F2"/>
<path d="M667.245 81.4375H650.977V170.838H667.245V81.4375Z" fill="#F2F2F2"/>
<path d="M585.905 0.164062H569.637V89.5636H585.905V0.164062Z" fill="#F2F2F2"/>
<path d="M911.262 16.4187V0.164062L732.314 0.164063V16.4187L911.262 16.4187Z" fill="#F2F2F2"/>
<path d="M911.262 170.839V154.584H732.314V170.839H911.262Z" fill="#F2F2F2"/>
<path d="M829.922 0.164062H813.654V170.837H829.922V0.164062Z" fill="#F2F2F2"/>
<path d="M1155.29 170.839V154.584H976.339V170.839H1155.29Z" fill="#F2F2F2"/>
<path d="M992.608 0.164062H976.34V170.837H992.608V0.164062Z" fill="#F2F2F2"/>
<path d="M1155.29 0.164062H1139.02V170.837H1155.29V0.164062Z" fill="#F2F2F2"/>
<path d="M1399.3 16.4187V0.164062L1220.36 0.164063V16.4187L1399.3 16.4187Z" fill="#F2F2F2"/>
<path d="M1236.62 0.164062H1220.36V170.837H1236.62V0.164062Z" fill="#F2F2F2"/>
<path d="M1399.3 0.164062H1383.04V170.837H1399.3V0.164062Z" fill="#F2F2F2"/>
<path d="M1317.96 0.164062H1301.69V89.5636H1317.96V0.164062Z" fill="#F2F2F2"/>
</g>
<defs>
<clipPath id="clip0_32_10163">
<rect width="1400" height="171" fill="white"/>
</clipPath>
</defs>
</svg>
